<?xml version="1.0" standalone="no"?>
<!DOCTYPE svg PUBLIC "-//W3C//DTD SVG 20010904//EN"
 "http://www.w3.org/TR/2001/REC-SVG-20010904/DTD/svg10.dtd">
<svg version="1.0" xmlns="http://www.w3.org/2000/svg"
 width="1024.000000pt" height="1024.000000pt" viewBox="0 0 1024.000000 1024.000000"
 preserveAspectRatio="xMidYMid meet">

<g transform="translate(0.000000,1024.000000) scale(0.100000,-0.100000)"
fill="#000000" stroke="none">
<path d="M4835 8499 c-532 -51 -1041 -244 -1440 -548 -129 -97 -401 -369 -493
-492 -40 -52 -72 -98 -72 -102 0 -4 38 -7 84 -7 l84 0 96 109 c522 593 1295
914 2141 888 593 -18 1130 -206 1590 -556 202 -154 427 -399 578 -631 358
-551 496 -1271 366 -1915 -25 -125 -99 -353 -150 -464 l-39 -83 46 -54 c26
-30 50 -54 54 -54 8 0 85 160 120 250 133 336 189 785 149 1196 -34 358 -156
752 -332 1077 -269 500 -741 925 -1280 1156 -262 112 -573 194 -862 226 -142
16 -490 18 -640 4z"/>
<path d="M5041 7791 l-31 -29 0 -141 0 -141 -419 0 c-408 0 -419 -1 -445 -21
-33 -26 -36 -84 -6 -122 l21 -26 -165 -330 -165 -330 -38 -3 c-32 -2 -39 -7
-41 -28 -7 -45 18 -99 73 -159 200 -216 663 -214 864 4 44 48 71 103 71 145 0
29 -15 40 -54 40 -20 0 -40 33 -146 243 -68 133 -143 279 -167 324 -23 45 -43
86 -43 92 0 8 100 11 330 11 l330 0 0 -610 0 -610 -97 0 c-122 -1 -137 -9
-136 -80 0 -88 -12 -85 344 -85 352 0 339 -3 339 82 0 70 -21 83 -135 83 l-95
0 0 610 0 610 331 0 c221 0 330 -3 327 -10 -2 -6 -75 -154 -163 -330 -157
-314 -161 -320 -191 -320 -56 0 -69 -41 -35 -116 101 -222 500 -315 781 -182
83 40 181 136 198 194 22 77 17 90 -38 97 -30 4 -41 24 -231 401 -119 237
-129 260 -115 275 22 24 22 114 -1 132 -13 11 -99 15 -440 17 l-423 3 0 140 0
141 -29 29 c-25 24 -38 29 -79 29 -41 0 -55 -5 -81 -29z m1094 -841 c80 -159
145 -292 145 -295 0 -3 -133 -5 -295 -5 -214 0 -295 3 -295 11 0 7 42 93 94
193 51 100 117 227 145 284 28 56 53 102 56 102 2 0 70 -130 150 -290z m-1764
58 c61 -123 127 -251 145 -285 19 -33 34 -64 34 -67 0 -3 -133 -6 -296 -6
-232 0 -295 3 -292 13 11 32 284 566 290 567 3 0 57 -100 119 -222z"/>
<path d="M2640 7085 l0 -95 95 0 95 0 0 95 0 95 -95 0 -95 0 0 -95z"/>
<path d="M2240 6770 l0 -120 110 0 110 0 0 120 0 120 -110 0 -110 0 0 -120z"/>
<path d="M2902 6780 l3 -95 93 -2 92 -1 0 96 0 97 -95 0 -96 0 3 -95z"/>
<path d="M2610 6420 l0 -90 93 0 92 0 0 90 0 90 -92 0 -93 0 0 -90z"/>
<path d="M6264 6226 c-161 -42 -287 -118 -407 -246 -277 -294 -300 -731 -57
-1052 100 -132 277 -252 445 -300 66 -19 104 -23 220 -23 166 0 241 16 369 79
l86 42 52 -64 c52 -63 53 -64 50 -123 -3 -45 1 -66 14 -87 18 -28 387 -452
647 -745 82 -92 163 -175 180 -184 41 -21 118 -18 165 6 108 55 144 177 79
268 -38 53 -745 859 -788 898 -32 29 -47 35 -82 35 -40 0 -47 4 -88 53 -24 28
-50 59 -57 69 -11 14 -5 26 38 85 212 282 224 661 31 953 -187 284 -559 423
-897 336z m376 -182 c169 -50 327 -176 393 -315 100 -208 103 -393 10 -589
-45 -93 -175 -229 -268 -277 -128 -67 -312 -92 -457 -62 -169 35 -349 178
-426 339 -23 47 -48 114 -56 150 -48 204 17 429 169 582 102 104 213 163 353
188 66 12 216 4 282 -16z"/>
<path d="M3695 6014 c-430 -42 -707 -84 -768 -115 -43 -22 -68 -54 -83 -105
l-15 -53 -47 15 c-141 46 -181 27 -213 -101 -43 -171 -210 -799 -287 -1080
-44 -158 -178 -637 -278 -990 -39 -140 -41 -165 -14 -190 25 -23 -37 -20 995
-45 446 -11 936 -25 1090 -30 154 -5 354 -10 445 -10 l165 -1 20 -42 c68 -144
410 -201 634 -105 58 24 118 82 127 121 l6 30 427 -6 c1068 -17 1856 -20 1878
-9 47 26 35 82 -32 141 -31 27 -44 31 -93 32 -31 0 -560 0 -1174 -1 -809 -1
-1118 1 -1118 9 0 15 138 105 225 146 241 115 572 175 885 161 209 -9 460 -49
885 -140 88 -19 160 -34 161 -33 1 1 -31 43 -72 93 -49 62 -82 94 -101 99
-102 25 -434 90 -568 111 -424 65 -822 30 -1147 -101 -162 -65 -257 -122 -443
-267 l-22 -18 -5 918 c-6 884 -5 918 13 948 27 45 113 123 200 182 81 54 99
81 99 150 l0 35 -40 -6 c-59 -8 -171 -79 -262 -165 l-79 -75 -112 110 c-222
218 -389 305 -707 368 -62 13 -147 18 -310 20 -124 2 -243 1 -265 -1z m615
-177 c249 -59 419 -158 608 -351 l94 -95 -3 -931 c-2 -511 -5 -930 -6 -930 -2
0 -38 27 -79 60 -253 201 -482 300 -839 361 -155 27 -500 36 -727 20 -175 -13
-564 -60 -741 -89 l-108 -18 5 20 c28 104 243 945 346 1355 71 283 133 518
137 522 15 15 364 67 653 98 47 5 191 8 320 6 210 -2 246 -5 340 -28z m-1522
-262 c3 -2 -35 -159 -83 -347 -222 -873 -317 -1243 -349 -1363 -33 -121 -34
-131 -20 -153 19 -29 43 -28 239 7 391 68 767 105 1090 105 350 0 533 -29 777
-124 148 -57 395 -210 354 -218 -9 -2 -282 6 -608 17 -326 11 -771 25 -988 31
-836 23 -1032 29 -1037 33 -2 3 16 76 41 163 25 88 95 337 156 554 61 217 134
476 162 575 27 99 65 234 83 300 17 66 52 191 76 278 l44 158 29 -5 c16 -4 32
-8 34 -11z"/>
<path d="M3689 5434 c-170 -17 -454 -61 -479 -74 -16 -9 -48 -105 -38 -115 2
-3 69 7 149 20 236 40 440 58 644 58 169 1 204 -2 317 -26 194 -41 288 -80
404 -168 76 -58 86 -56 98 23 6 36 3 45 -19 68 -41 42 -165 109 -272 145 -239
81 -478 102 -804 69z"/>
<path d="M3750 5024 c-19 -2 -91 -9 -160 -15 -181 -15 -463 -58 -477 -72 -14
-14 -39 -104 -32 -112 3 -3 57 4 120 14 345 59 740 79 944 47 203 -31 387
-101 516 -197 38 -28 75 -49 83 -46 12 5 26 56 26 98 0 41 -255 179 -415 224
-49 14 -130 32 -180 40 -90 15 -358 27 -425 19z"/>
<path d="M3510 4579 c-283 -25 -486 -51 -501 -65 -19 -17 -43 -100 -33 -115 3
-6 17 -8 31 -4 34 8 274 41 400 55 399 43 701 23 943 -62 118 -42 184 -77 278
-147 106 -80 117 -80 128 1 6 44 6 44 -49 86 -161 125 -375 210 -622 248 -99
15 -416 17 -575 3z"/>
</g>
</svg>
